<svg width="88" height="22" viewBox="0 0 88 22" fill="none" xmlns="http://www.w3.org/2000/svg">
<path d="M35.3388 13.5174V12.9128C31.5675 11.8353 28.4716 12.213 28.4855 15.0147C28.5016 18.2552 35.3388 17.9981 35.3388 13.5174ZM70.5697 13.2495C70.8723 15.3967 73.3005 16.6969 75.1552 16.6969C76.8466 16.6969 77.9143 16.3834 79.0266 15.5976C79.952 14.9438 81.1936 14.9188 82.1293 15.5586C83.6683 16.6109 83.6508 18.8571 82.086 19.8722C80.3724 20.984 77.8819 22 74.5014 22C68.6718 22 63.9316 17.0648 63.9316 10.9976C63.9316 4.93282 68.6718 0 74.5014 0C79.7234 0 84.2215 4.05011 84.9625 9.4221C84.9697 9.47681 84.9768 9.55252 84.984 9.64048C85.0471 10.5928 84.7091 11.5026 84.0333 12.1976C83.3555 12.8943 82.3885 13.2495 81.4059 13.2495H70.5697ZM78.4887 9.15646C78.4887 8.30459 77.8643 5.1488 74.4021 5.1488C72.3661 5.1488 70.5648 7.03742 70.5648 9.15646H78.4887ZM32.2556 0C34.8716 0 37.1507 0.680519 39.0298 2.02296C42.1811 4.2737 42.1342 7.7892 42.1165 9.1126C42.1154 9.19466 42.1143 9.26818 42.1143 9.33142V18.5764C42.1143 20.3672 40.6252 21.8241 38.795 21.8241H38.6742C37.7881 21.8241 36.9548 21.4862 36.3275 20.8724C35.9907 20.5431 35.7349 20.1525 35.5705 19.7261C34.6289 20.6077 32.7295 22 29.4169 22C24.7972 22 21.812 19.242 21.812 14.9742C21.812 11.4045 24.7788 8.82464 29.3702 8.40167C31.9951 8.16053 34.2684 8.65593 35.3551 8.95943L35.3549 8.71085C35.3549 4.92599 30.7888 5.36209 27.3485 6.14042C23.3479 7.04873 22.1479 2.02646 25.5806 0.97789C27.0707 0.522752 29.1763 0 32.2556 0ZM3.42266 0H9.79145C15.9038 0 20.9581 4.68848 21.0582 10.4519C21.1083 13.3278 19.9782 16.0401 17.8763 18.0889C15.7736 20.1381 12.9642 21.2667 9.96577 21.2667H3.42266C1.53542 21.2667 0 19.7952 0 17.9861V3.28052C0 1.47144 1.53542 0 3.42266 0ZM6.66782 16.3034H8.48087C12.3505 16.3034 14.3922 13.7647 14.3922 10.6333C14.3922 7.50179 12.3883 4.96353 8.48087 4.96353H6.66782V16.3034ZM53.4018 13.2526L57.4485 2.17875C57.9264 0.871326 59.1821 0 60.5889 0C63.025 0 64.6408 2.49472 63.6211 4.68092L56.4359 20.0808C55.89 21.2506 54.7054 22 53.4018 22C52.0979 22 50.9133 21.2506 50.3674 20.0808L43.1825 4.68092C42.1625 2.49472 43.7784 0 46.2146 0C47.6212 0 48.8769 0.871326 49.3548 2.17875L53.4018 13.2526ZM88 2.2C88 2.81798 87.7845 3.33708 87.3472 3.76348C86.9098 4.18989 86.3711 4.4 85.7436 4.4C85.1098 4.4 84.5774 4.18989 84.14 3.76348C83.7027 3.33708 83.4872 2.81798 83.4872 2.2C83.4872 1.58202 83.7027 1.06292 84.14 0.636517C84.5774 0.210112 85.1098 0 85.7436 0C86.3711 0 86.9098 0.210112 87.3472 0.636517C87.7845 1.06292 88 1.58202 88 2.2ZM87.7021 2.2C87.7021 1.67472 87.512 1.2236 87.1253 0.852809C86.745 0.475843 86.2823 0.290449 85.7436 0.290449C85.2048 0.290449 84.7421 0.475843 84.3619 0.852809C83.9752 1.2236 83.7851 1.67472 83.7851 2.2C83.7851 2.72528 83.9752 3.1764 84.3619 3.54719C84.7421 3.92416 85.2048 4.10955 85.7436 4.10955C86.2823 4.10955 86.745 3.92416 87.1317 3.54719C87.512 3.1764 87.7021 2.72528 87.7021 2.2ZM86.0605 2.37303L86.764 3.47303H86.276L85.6485 2.41629H85.3253V3.47303H84.9196V0.926966L85.8196 0.933146C86.0478 0.933146 86.238 1.00112 86.3964 1.1309C86.5549 1.26067 86.6373 1.43989 86.6373 1.66854C86.6373 1.88483 86.5802 2.04551 86.4598 2.15674C86.3457 2.26798 86.2126 2.34213 86.0605 2.37303ZM86.219 1.67472C86.219 1.39663 86.0351 1.26067 85.6739 1.26067H85.3253V2.08876H85.6739C86.0351 2.08876 86.219 1.95281 86.219 1.67472Z" fill="#3C3C3C"/>
</svg>
